<svg width="40" height="40" viewBox="0 0 40 40" fill="none" xmlns="http://www.w3.org/2000/svg">
<rect width="40" height="40" rx="5" fill="white"/>
<g clip-path="url(#clip0_478_11)">
<path d="M32 20.0301C32 13.3895 26.624 8 20 8C13.376 8 8 13.3895 8 20.0301C8 25.8526 12.128 30.7007 17.6 31.8195V23.6391H15.2V20.0301H17.6V17.0226C17.6 14.7008 19.484 12.812 21.8 12.812H24.8V16.4211H22.4C21.74 16.4211 21.2 16.9624 21.2 17.6241V20.0301H24.8V23.6391H21.2V32C27.26 31.3985 32 26.2737 32 20.0301Z" fill="#066D72"/>
</g>
<defs>
<clipPath id="clip0_478_11">
<rect width="24" height="24" fill="white" transform="translate(8 8)"/>
</clipPath>
</defs>
</svg>
