<svg width="80" height="80" viewBox="0 0 80 80" fill="none" xmlns="http://www.w3.org/2000/svg">
<rect width="80" height="80" rx="10" fill="#066D72"/>
<path d="M58.2362 34.8282C58.1209 34.4888 57.9088 34.1905 57.626 33.9703C57.3432 33.7501 57.0021 33.6175 56.6448 33.5889L46.193 32.7584L41.6702 22.7465C41.5261 22.4241 41.2918 22.1502 40.9956 21.9579C40.6993 21.7657 40.3538 21.6633 40.0006 21.6631C39.6474 21.6629 39.3018 21.7649 39.0053 21.9568C38.7088 22.1488 38.4742 22.4224 38.3298 22.7447L33.807 32.7584L23.3552 33.5889C23.004 33.6167 22.6683 33.7451 22.3882 33.9587C22.1081 34.1723 21.8955 34.4621 21.7757 34.7934C21.656 35.1247 21.6343 35.4835 21.7131 35.8268C21.792 36.1701 21.9681 36.4835 22.2203 36.7294L29.9442 44.2589L27.2125 56.0875C27.1296 56.4456 27.1561 56.8203 27.2888 57.163C27.4215 57.5058 27.6541 57.8008 27.9565 58.0097C28.2589 58.2186 28.6171 58.3318 28.9846 58.3346C29.3521 58.3374 29.712 58.2296 30.0175 58.0254L40 51.3704L49.9825 58.0254C50.2948 58.2327 50.6631 58.3394 51.0378 58.3312C51.4126 58.323 51.7758 58.2002 52.0787 57.9794C52.3816 57.7586 52.6096 57.4503 52.7321 57.096C52.8545 56.7417 52.8656 56.3584 52.7637 55.9977L49.4105 44.2644L57.7265 36.7807C58.271 36.2894 58.4708 35.523 58.2362 34.8282Z" fill="white"/>
</svg>
