<svg width="30" height="30" viewBox="0 0 30 30" fill="none" xmlns="http://www.w3.org/2000/svg">
<rect width="30" height="30" rx="5" fill="white"/>
<path d="M16.028 5C17.153 5.003 17.724 5.009 18.217 5.023L18.411 5.03C18.635 5.038 18.856 5.048 19.123 5.06C20.187 5.11 20.913 5.278 21.55 5.525C22.21 5.779 22.766 6.123 23.322 6.678C23.8305 7.1779 24.224 7.78259 24.475 8.45C24.722 9.087 24.89 9.813 24.94 10.878C24.952 11.144 24.962 11.365 24.97 11.59L24.976 11.784C24.991 12.276 24.997 12.847 24.999 13.972L25 14.718V16.028C25.0025 16.7574 24.9948 17.4868 24.977 18.216L24.971 18.41C24.963 18.635 24.953 18.856 24.941 19.122C24.891 20.187 24.721 20.912 24.475 21.55C24.2247 22.2178 23.8311 22.8226 23.322 23.322C22.822 23.8303 22.2173 24.2238 21.55 24.475C20.913 24.722 20.187 24.89 19.123 24.94C18.8857 24.9512 18.6484 24.9612 18.411 24.97L18.217 24.976C17.724 24.99 17.153 24.997 16.028 24.999L15.282 25H13.973C13.2433 25.0025 12.5135 24.9948 11.784 24.977L11.59 24.971C11.3526 24.962 11.1153 24.9517 10.878 24.94C9.814 24.89 9.088 24.722 8.45 24.475C7.78267 24.2244 7.17821 23.8308 6.679 23.322C6.17004 22.8223 5.77622 22.2176 5.525 21.55C5.278 20.913 5.11 20.187 5.06 19.122C5.04886 18.8847 5.03886 18.6474 5.03 18.41L5.025 18.216C5.00657 17.4868 4.99824 16.7574 5 16.028V13.972C4.99721 13.2426 5.00454 12.5132 5.022 11.784L5.029 11.59C5.037 11.365 5.047 11.144 5.059 10.878C5.109 9.813 5.277 9.088 5.524 8.45C5.77511 7.7819 6.16972 7.17702 6.68 6.678C7.17909 6.16947 7.78314 5.77599 8.45 5.525C9.088 5.278 9.813 5.11 10.878 5.06C11.144 5.048 11.366 5.038 11.59 5.03L11.784 5.024C12.5132 5.00623 13.2426 4.99857 13.972 5.001L16.028 5ZM15 10C13.6739 10 12.4021 10.5268 11.4645 11.4645C10.5268 12.4021 10 13.6739 10 15C10 16.3261 10.5268 17.5979 11.4645 18.5355C12.4021 19.4732 13.6739 20 15 20C16.3261 20 17.5978 19.4732 18.5355 18.5355C19.4732 17.5979 20 16.3261 20 15C20 13.6739 19.4732 12.4021 18.5355 11.4645C17.5978 10.5268 16.3261 10 15 10ZM15 12C15.394 11.9999 15.7841 12.0775 16.1481 12.2282C16.5121 12.3789 16.8428 12.5998 17.1215 12.8783C17.4001 13.1569 17.6211 13.4875 17.7719 13.8515C17.9228 14.2154 18.0004 14.6055 18.0005 14.9995C18.0006 15.3935 17.923 15.7836 17.7723 16.1476C17.6216 16.5116 17.4007 16.8423 17.1222 17.121C16.8436 17.3996 16.513 17.6206 16.149 17.7714C15.7851 17.9223 15.395 17.9999 15.001 18C14.2053 18 13.4423 17.6839 12.8797 17.1213C12.3171 16.5587 12.001 15.7956 12.001 15C12.001 14.2044 12.3171 13.4413 12.8797 12.8787C13.4423 12.3161 14.2053 12 15.001 12M20.251 8.5C19.9195 8.5 19.6015 8.6317 19.3671 8.86612C19.1327 9.10054 19.001 9.41848 19.001 9.75C19.001 10.0815 19.1327 10.3995 19.3671 10.6339C19.6015 10.8683 19.9195 11 20.251 11C20.5825 11 20.9005 10.8683 21.1349 10.6339C21.3693 10.3995 21.501 10.0815 21.501 9.75C21.501 9.41848 21.3693 9.10054 21.1349 8.86612C20.9005 8.6317 20.5825 8.5 20.251 8.5Z" fill="#066D72"/>
</svg>
