<svg width="100" height="100" viewBox="0 0 100 100" fill="none" xmlns="http://www.w3.org/2000/svg">
<circle cx="50" cy="50" r="50" fill="#066D72"/>
<path d="M62.6563 71C60.8263 71 58.2557 70.3381 54.4063 68.1875C49.7254 65.5625 46.1048 63.139 41.4491 58.4956C36.9604 54.0097 34.776 51.1053 31.7188 45.5422C28.2651 39.2609 28.8538 35.9684 29.5119 34.5612C30.2957 32.8794 31.4526 31.8734 32.9479 30.875C33.7972 30.3185 34.696 29.8415 35.6329 29.45C35.7266 29.4097 35.8138 29.3712 35.8916 29.3365C36.3557 29.1275 37.0588 28.8115 37.9494 29.149C38.5438 29.3722 39.0744 29.8287 39.9051 30.649C41.6085 32.329 43.9363 36.0706 44.7951 37.9081C45.3716 39.1465 45.7532 39.964 45.7541 40.8809C45.7541 41.9544 45.2141 42.7822 44.5588 43.6756C44.436 43.8434 44.3141 44.0037 44.196 44.1594C43.4826 45.0969 43.326 45.3678 43.4291 45.8515C43.6382 46.8237 45.1973 49.7178 47.7594 52.2744C50.3216 54.8309 53.1323 56.2915 54.1082 56.4997C54.6126 56.6075 54.8891 56.4444 55.8566 55.7056C55.9954 55.5997 56.1379 55.49 56.2869 55.3803C57.2863 54.6369 58.0757 54.1109 59.1238 54.1109H59.1294C60.0416 54.1109 60.8226 54.5065 62.1163 55.159C63.8038 56.0103 67.6579 58.3081 69.3482 60.0134C70.1704 60.8422 70.6288 61.3709 70.8529 61.9644C71.1904 62.8578 70.8726 63.5581 70.6654 64.0269C70.6307 64.1047 70.5923 64.19 70.5519 64.2847C70.1573 65.2199 69.6775 66.1168 69.1185 66.9641C68.1219 68.4547 67.1123 69.6087 65.4266 70.3934C64.5611 70.8028 63.6138 71.0102 62.6563 71Z" fill="white"/>
</svg>
