<svg width="80" height="80" viewBox="0 0 80 80" fill="none" xmlns="http://www.w3.org/2000/svg">
<rect width="80" height="80" rx="10" fill="#066D72"/>
<path d="M28.538 43.2047L37.4077 52.0743C38.6287 53.2972 39.241 53.9077 40 53.9077C40.759 53.9077 41.3713 53.2972 42.5923 52.0743L51.462 43.2047C53.0203 41.6463 53.8013 40.8653 54.0397 39.8515C54.278 38.8377 53.9297 37.7927 53.233 35.7008L52.672 34.0142C51.8653 31.5942 51.462 30.3842 50.5013 29.693C49.5407 29 48.2647 29 45.7145 29H34.2855C31.7353 29 30.4593 29 29.5005 29.693C28.538 30.3842 28.1347 31.5942 27.328 34.0142L26.767 35.7008C26.0703 37.7908 25.722 38.8377 25.9603 39.8515C26.1987 40.8653 26.9797 41.6445 28.538 43.2047Z" fill="white"/>
</svg>
