<svg width="30" height="30" viewBox="0 0 30 30" fill="none" xmlns="http://www.w3.org/2000/svg">
<rect width="30" height="30" rx="5" fill="white"/>
<path d="M15 5C20.523 5 25 9.477 25 15C25 20.523 20.523 25 15 25C13.2328 25.0029 11.4967 24.5352 9.97001 23.645L5.00401 25L6.35601 20.032C5.46511 18.5049 4.99706 16.768 5.00001 15C5.00001 9.477 9.47701 5 15 5ZM11.592 10.3L11.392 10.308C11.2625 10.3159 11.136 10.3499 11.02 10.408C10.9115 10.4694 10.8125 10.5462 10.726 10.636C10.606 10.749 10.538 10.847 10.465 10.942C10.0951 11.4229 9.89599 12.0133 9.89901 12.62C9.90101 13.11 10.029 13.587 10.229 14.033C10.638 14.935 11.311 15.89 12.199 16.775C12.413 16.988 12.623 17.202 12.849 17.401C13.9524 18.3725 15.2673 19.073 16.689 19.447L17.257 19.534C17.442 19.544 17.627 19.53 17.813 19.521C18.1043 19.506 18.3886 19.4271 18.646 19.29C18.777 19.2225 18.9048 19.1491 19.029 19.07C19.029 19.07 19.072 19.042 19.154 18.98C19.289 18.88 19.372 18.809 19.484 18.692C19.567 18.606 19.639 18.505 19.694 18.39C19.772 18.227 19.85 17.916 19.882 17.657C19.906 17.459 19.899 17.351 19.896 17.284C19.892 17.177 19.803 17.066 19.706 17.019L19.124 16.758C19.124 16.758 18.254 16.379 17.722 16.137C17.6663 16.1127 17.6067 16.0988 17.546 16.096C17.4776 16.089 17.4085 16.0967 17.3433 16.1186C17.2781 16.1405 17.2183 16.1761 17.168 16.223C17.163 16.221 17.096 16.278 16.373 17.154C16.3315 17.2098 16.2744 17.2519 16.2088 17.2751C16.1433 17.2982 16.0723 17.3013 16.005 17.284C15.9399 17.2665 15.876 17.2445 15.814 17.218C15.69 17.166 15.647 17.146 15.562 17.11C14.9881 16.8595 14.4567 16.5211 13.987 16.107C13.861 15.997 13.744 15.877 13.624 15.761C13.2306 15.3842 12.8877 14.958 12.604 14.493L12.545 14.398C12.5026 14.3342 12.4684 14.2653 12.443 14.193C12.405 14.046 12.504 13.928 12.504 13.928C12.504 13.928 12.747 13.662 12.86 13.518C12.97 13.378 13.063 13.242 13.123 13.145C13.241 12.955 13.278 12.76 13.216 12.609C12.936 11.925 12.646 11.244 12.348 10.568C12.289 10.434 12.114 10.338 11.955 10.319C11.901 10.313 11.847 10.307 11.793 10.303C11.6587 10.2963 11.5241 10.2977 11.39 10.307L11.592 10.3Z" fill="#066D72"/>
</svg>
