<svg width="80" height="80" viewBox="0 0 80 80" fill="none" xmlns="http://www.w3.org/2000/svg">
<rect width="80" height="80" rx="10" fill="#066D72"/>
<path d="M52.6628 29.8066L38.6286 43.8408C39.0448 44.4366 39.3986 45.0801 39.6828 45.7621L43.1845 54.1936L52.6628 29.8066ZM36.1591 41.3713L50.1951 27.3353L25.8063 36.8136L34.2378 40.3172C34.9146 40.5978 35.5588 40.9513 36.1591 41.3713ZM57.4588 26.9576L46.4093 55.3853C45.7126 57.182 43.7015 58.1041 41.9195 57.446C41.4854 57.2856 41.0892 57.0371 40.7557 56.7163C40.4222 56.3954 40.1587 56.0091 39.9816 55.5815L36.48 47.15C35.7986 45.5069 34.4931 44.2013 32.85 43.52L24.4166 40.0183C22.6676 39.2905 21.8683 37.2683 22.6346 35.4973C22.8225 35.0646 23.0942 34.6733 23.4341 34.3461C23.7739 34.0188 24.1751 33.7621 24.6146 33.5906L53.0423 22.5375C53.66 22.2886 54.3373 22.2268 54.9898 22.3598C55.6424 22.4929 56.2414 22.8149 56.7123 23.2859C57.1832 23.7568 57.5052 24.3558 57.6383 25.0083C57.7713 25.6609 57.7096 26.3381 57.4606 26.9558L57.4588 26.9576Z" fill="white"/>
</svg>
