<svg width="80" height="80" viewBox="0 0 80 80" fill="none" xmlns="http://www.w3.org/2000/svg">
<rect width="80" height="80" rx="10" fill="#066D72"/>
<path d="M48.2398 24.5814C44.6928 24.5814 41.6618 27.1097 39.9966 28.8528C38.3314 27.1097 35.3072 24.5814 31.7618 24.5814C25.6509 24.5814 21.3846 28.841 21.3846 34.9383C21.3846 41.6568 26.6832 45.9993 31.8092 50.1996C34.2292 52.1847 36.7338 54.2357 38.6546 56.5102C38.9778 56.891 39.4517 57.111 39.9492 57.111H40.0474C40.5466 57.111 41.0188 56.8893 41.3403 56.5102C43.2645 54.2357 45.7674 52.183 48.1891 50.1996C53.3134 46.001 58.6154 41.6585 58.6154 34.9383C58.6154 28.841 54.3491 24.5814 48.2398 24.5814Z" fill="white"/>
</svg>
