<svg width="100" height="100" viewBox="0 0 100 100" fill="none" xmlns="http://www.w3.org/2000/svg">
<circle cx="50" cy="50" r="50" fill="#066D72"/>
<path d="M61.314 36.608C55.066 30.462 44.936 30.462 38.688 36.608C37.2046 38.0572 36.0259 39.7884 35.2211 41.6998C34.4163 43.6111 34.0017 45.6641 34.0017 47.738C34.0017 49.8118 34.4163 51.8648 35.2211 53.7762C36.0259 55.6875 37.2046 57.4187 38.688 58.868L50 69.998L61.314 58.868C62.7975 57.4187 63.9762 55.6875 64.781 53.7762C65.5858 51.8648 66.0004 49.8118 66.0004 47.738C66.0004 45.6641 65.5858 43.6111 64.781 41.6998C63.9762 39.7884 62.7975 38.0572 61.314 36.608ZM50 52.998C48.664 52.998 47.41 52.478 46.464 51.534C45.5275 50.5955 45.0016 49.3238 45.0016 47.998C45.0016 46.6721 45.5275 45.4005 46.464 44.462C47.408 43.518 48.664 42.998 50 42.998C51.336 42.998 52.592 43.518 53.536 44.462C54.4725 45.4005 54.9985 46.6721 54.9985 47.998C54.9985 49.3238 54.4725 50.5955 53.536 51.534C52.592 52.478 51.336 52.998 50 52.998Z" fill="white"/>
</svg>
