<svg width="80" height="80" viewBox="0 0 80 80" fill="none" xmlns="http://www.w3.org/2000/svg">
<rect width="80" height="80" rx="10" fill="#066D72"/>
<g clip-path="url(#clip0_8_111)">
<path d="M61.7189 27.9734C61.6252 27.3785 61.353 26.8262 60.9383 26.3897C60.5235 25.9531 59.9859 25.6529 59.3967 25.5289L52.2222 23.9522C51.4528 23.7844 50.6564 23.7838 49.8868 23.9504C49.1171 24.117 48.3922 24.4469 47.7611 24.9178L26.5556 40.3667L20.6156 40.1222C20.138 40.1052 19.6673 40.2389 19.2702 40.5046C18.873 40.7703 18.5697 41.1544 18.4033 41.6023C18.2368 42.0501 18.2158 42.5391 18.343 42.9996C18.4703 43.4602 18.7394 43.8689 19.1122 44.1678L25.2233 48.9711C25.9567 49.8634 26.4456 49.6922 38.5822 43.08L39.7189 54.5934C39.7378 54.9074 39.8455 55.2097 40.0294 55.465C40.2133 55.7203 40.4659 55.9182 40.7578 56.0356C40.9678 56.1186 41.1919 56.1601 41.4178 56.1578C41.8723 56.1439 42.3065 55.9659 42.64 55.6567L45.5611 52.9922C45.852 52.7228 46.049 52.3673 46.1233 51.9778L48.8 37.4334C53.1633 34.9889 57.2944 32.6911 60.24 31.0167C60.767 30.7203 61.1909 30.27 61.4552 29.7262C61.7195 29.1824 61.8115 28.5709 61.7189 27.9734ZM59.03 28.89C55.9744 30.6256 51.6967 33.0578 47.1011 35.5756L46.6 35.8567L43.7522 51.3422L41.9556 52.98L40.6111 39.1689L38.9856 40C30.2222 44.8889 27.3011 46.3067 26.2989 46.7467L21.0433 42.5789L27.2522 42.8478L49.2522 26.8856C49.598 26.627 49.9945 26.4444 50.4157 26.3496C50.837 26.2549 51.2735 26.2501 51.6967 26.3356L58.8467 27.8756C58.9568 27.8956 59.0578 27.9502 59.1347 28.0315C59.2117 28.1129 59.2606 28.2167 59.2744 28.3278C59.2996 28.4353 59.2894 28.5481 59.2454 28.6494C59.2013 28.7507 59.1258 28.8351 59.03 28.89Z" fill="white"/>
<path d="M26.5556 33.3267L30.9067 34.5489L32.9111 33.0945L28.0222 31.6767L30.2222 30.3322L36.9078 30.1367L39.7189 28.0956L30.2222 28.3889C29.9228 28.3727 29.6253 28.445 29.3667 28.5967L26.1522 30.4667C25.8865 30.6241 25.6733 30.8567 25.5395 31.1351C25.4057 31.4135 25.3573 31.7253 25.4005 32.0311C25.4436 32.337 25.5763 32.6232 25.7819 32.8538C25.9874 33.0844 26.2566 33.2489 26.5556 33.3267Z" fill="white"/>
</g>
<defs>
<clipPath id="clip0_8_111">
<rect width="44" height="44" fill="white" transform="translate(18 18)"/>
</clipPath>
</defs>
</svg>
