<svg width="21" height="18" viewBox="0 0 21 18" fill="none" xmlns="http://www.w3.org/2000/svg">
<path fill-rule="evenodd" clip-rule="evenodd" d="M19.1 5.004C19.045 5 18.984 5 18.92 5H16.395C14.327 5 12.558 6.628 12.558 8.75C12.558 10.872 14.328 12.5 16.395 12.5H18.92C18.984 12.5 19.045 12.5 19.102 12.496C19.527 12.4704 19.9282 12.2911 20.2309 11.9916C20.5335 11.6921 20.7169 11.2927 20.747 10.868C20.751 10.808 20.751 10.743 20.751 10.683V6.817C20.751 6.757 20.751 6.692 20.747 6.632C20.7169 6.20726 20.5335 5.80793 20.2309 5.50842C19.9282 5.2089 19.527 5.02963 19.102 5.004M16.174 9.75C16.706 9.75 17.137 9.302 17.137 8.75C17.137 8.198 16.706 7.75 16.174 7.75C15.641 7.75 15.21 8.198 15.21 8.75C15.21 9.302 15.641 9.75 16.174 9.75Z" fill="#066D72"/>
<path fill-rule="evenodd" clip-rule="evenodd" d="M18.918 14C18.9526 13.9986 18.987 14.0054 19.0184 14.0198C19.0499 14.0342 19.0775 14.0558 19.099 14.0829C19.1206 14.11 19.1354 14.1418 19.1424 14.1757C19.1493 14.2096 19.1481 14.2446 19.139 14.278C18.939 14.99 18.62 15.598 18.109 16.108C17.36 16.858 16.411 17.189 15.239 17.347C14.099 17.5 12.644 17.5 10.806 17.5H8.694C6.856 17.5 5.4 17.5 4.261 17.347C3.089 17.189 2.14 16.857 1.391 16.109C0.643 15.36 0.311 14.411 0.153 13.239C1.19209e-07 12.099 0 10.644 0 8.806V8.694C0 6.856 1.19209e-07 5.4 0.153 4.26C0.311 3.088 0.643 2.139 1.391 1.39C2.14 0.642 3.089 0.31 4.261 0.152C5.401 -4.47035e-08 6.856 0 8.694 0H10.806C12.644 0 14.1 1.19209e-07 15.239 0.153C16.411 0.311 17.36 0.643 18.109 1.391C18.62 1.903 18.939 2.51 19.139 3.222C19.1481 3.25537 19.1493 3.29042 19.1424 3.32432C19.1354 3.35822 19.1206 3.39 19.099 3.41708C19.0775 3.44417 19.0499 3.46579 19.0184 3.4802C18.987 3.4946 18.9526 3.50139 18.918 3.5H16.394C13.557 3.5 11.057 5.74 11.057 8.75C11.057 11.76 13.557 14 16.394 14H18.918ZM5 12.5C4.80109 12.5 4.61032 12.421 4.46967 12.2803C4.32902 12.1397 4.25 11.9489 4.25 11.75V5.75C4.25 5.55109 4.32902 5.36032 4.46967 5.21967C4.61032 5.07902 4.80109 5 5 5C5.19891 5 5.38968 5.07902 5.53033 5.21967C5.67098 5.36032 5.75 5.55109 5.75 5.75V11.75C5.75 11.9489 5.67098 12.1397 5.53033 12.2803C5.38968 12.421 5.19891 12.5 5 12.5Z" fill="#066D72"/>
</svg>
