<svg width="80" height="80" viewBox="0 0 80 80" fill="none" xmlns="http://www.w3.org/2000/svg">
<rect width="80" height="80" rx="10" fill="#066D72"/>
<path fill-rule="evenodd" clip-rule="evenodd" d="M49.911 20.2916H51.3062C52.9048 20.2916 54.2395 20.2916 55.3028 20.4346C56.4212 20.585 57.4405 20.915 58.26 21.7326C59.0813 22.5503 59.415 23.5678 59.5653 24.688C59.7083 25.7476 59.7083 27.0786 59.7083 28.6718V30.0651C59.7083 31.9901 59.7083 33.3413 59.195 34.577C58.6817 35.8126 57.7247 36.7678 56.3588 38.1281L56.1755 38.3115L51.2805 43.1918L51.451 43.454C52.1733 44.5686 52.7582 45.4706 53.1798 46.2498C53.6162 47.0565 53.9278 47.8136 54.0525 48.6515C54.2483 50.0056 54.0708 51.3875 53.5392 52.6481C53.343 53.1211 53.0038 53.6143 52.6555 54.0635C52.2888 54.5365 51.8415 55.0498 51.3612 55.5723C50.3438 56.6612 49.3035 57.7285 48.2408 58.7733L48.074 58.9383C46.754 60.2546 44.466 59.8293 43.762 58.0638C43.3458 57.0151 43.1753 56.5971 42.9645 56.2121C42.7682 55.8553 42.5432 55.515 42.2917 55.1946C42.024 54.8518 41.7123 54.5346 40.935 53.7628L40.0092 52.9506C39.9967 52.9392 39.9845 52.9276 39.9725 52.9158C39.7992 52.938 39.6247 52.949 39.45 52.9488C38.2913 52.9488 37.3362 52.4666 36.436 51.781C35.5853 51.1338 34.6393 50.1915 33.51 49.0658L30.8572 46.4203C29.7278 45.2946 28.7837 44.3523 28.1328 43.5035C27.4472 42.6051 26.9595 41.6518 26.9595 40.4931C26.9595 40.2841 26.9778 40.0788 27.0072 39.8753L25.4855 38.3591C24.7146 37.5653 23.7782 36.9512 22.7428 36.5606L22.048 36.2856C21.6189 36.1166 21.2387 35.8434 20.9417 35.4906C20.6447 35.1377 20.4403 34.7165 20.3469 34.2649C20.2536 33.8132 20.2742 33.3454 20.407 32.9038C20.5398 32.4622 20.7806 32.0606 21.1075 31.7353L21.1203 31.7225C22.1689 30.6635 23.2392 29.6262 24.3305 28.6113C24.8567 28.1328 25.3718 27.6873 25.843 27.3225C26.2958 26.9741 26.7908 26.635 27.262 26.4406C28.526 25.9116 29.9098 25.7354 31.266 25.931C32.1038 26.0538 32.861 26.3636 33.6695 26.8C34.4505 27.2216 35.3562 27.8028 36.4745 28.5233L36.7458 28.6975L41.6445 23.8116L41.8278 23.6301C43.1918 22.268 44.1488 21.3128 45.3882 20.8013C46.6257 20.2898 47.9787 20.2916 49.911 20.2916ZM34.7512 30.6848C33.7245 30.0248 32.9857 29.5555 32.366 29.22C31.706 28.8661 31.266 28.7103 30.8627 28.6516C29.9992 28.5285 29.1185 28.6419 28.3143 28.9798C28.0322 29.1241 27.7666 29.2986 27.5223 29.5005C27.1337 29.7993 26.6808 30.1898 26.184 30.6426C25.1178 31.6337 24.0726 32.6472 23.049 33.6823L23.0417 33.6933V33.7061L23.0472 33.7208L23.0618 33.7281L23.764 34.0068L23.9987 34.1003C25.2042 34.5972 26.3042 35.3189 27.24 36.227C27.2913 36.2746 27.3408 36.3241 27.4197 36.4048L28.296 37.2775C28.4152 37.129 28.5417 36.9805 28.67 36.8338C29.2603 36.1591 30.0175 35.4038 30.8957 34.5293L34.7512 30.6848ZM42.6657 51.6215L42.8142 51.7516L42.9095 51.847C43.6245 52.562 44.07 53.002 44.4568 53.497C44.7997 53.9362 45.1068 54.4021 45.3753 54.8903C45.6687 55.4238 45.896 55.9866 46.2498 56.8758L46.2865 56.8391C47.3246 55.8187 48.3411 54.7765 49.3353 53.7133C49.79 53.2183 50.1823 52.7655 50.4812 52.3786C50.6841 52.1361 50.8593 51.8717 51.0037 51.5903C51.3419 50.7908 51.4554 49.9141 51.3318 49.0548C51.2732 48.6551 51.1173 48.217 50.7635 47.5606C50.4262 46.941 49.955 46.204 49.2895 45.1773L45.423 49.031C44.5247 49.9256 43.751 50.6975 43.0635 51.2915C42.933 51.4039 42.8003 51.514 42.6657 51.6215ZM50.1695 23.0416C47.8742 23.0416 47.1078 23.0655 46.4368 23.3423C45.7677 23.6191 45.2085 24.1416 43.586 25.7605L32.8665 36.447C31.9535 37.3581 31.2605 38.0493 30.7398 38.647C30.2137 39.2428 29.946 39.6535 29.8158 39.9761C29.7465 40.1397 29.7104 40.3155 29.7095 40.4931C29.7095 40.8048 29.8177 41.1788 30.3182 41.8315C30.8407 42.5171 31.6528 43.3293 32.8665 44.5411L33.1543 44.8271L35.9593 42.0295C36.2178 41.7718 36.568 41.6273 36.9329 41.6278C37.2979 41.6283 37.6477 41.7738 37.9054 42.0322C38.1631 42.2906 38.3076 42.6409 38.3071 43.0058C38.3066 43.3708 38.1611 43.7206 37.9027 43.9783L35.1032 46.7686L35.3837 47.051C36.5992 48.261 37.4132 49.0695 38.1007 49.592C38.757 50.0906 39.1328 50.1988 39.45 50.1988C39.6129 50.1987 39.7745 50.1689 39.9267 50.1108C40.2475 49.9935 40.6563 49.7368 41.265 49.2125C41.87 48.6881 42.5777 47.9841 43.5145 47.0491L54.234 36.3645C55.8565 34.7456 56.379 34.1901 56.6558 33.5228C56.9327 32.8555 56.9583 32.0965 56.9583 29.8066V28.7671C56.9583 27.0548 56.9547 25.9071 56.8392 25.0546C56.7292 24.2425 56.5422 23.9015 56.3185 23.6796C56.0967 23.4578 55.7538 23.269 54.9362 23.159C54.0782 23.0453 52.9287 23.0416 51.2108 23.0416H50.1695ZM48.5488 31.4273C48.138 31.0185 47.582 30.7891 47.0024 30.7891C46.4229 30.7891 45.8669 31.0185 45.456 31.4273C45.2536 31.6287 45.0929 31.8681 44.9833 32.1317C44.8737 32.3954 44.8173 32.6781 44.8173 32.9636C44.8173 33.2492 44.8737 33.5319 44.9833 33.7955C45.0929 34.0592 45.2536 34.2986 45.456 34.5C45.8669 34.9087 46.4229 35.1382 47.0024 35.1382C47.582 35.1382 48.138 34.9087 48.5488 34.5C48.7513 34.2986 48.9119 34.0592 49.0215 33.7955C49.1311 33.5319 49.1876 33.2492 49.1876 32.9636C49.1876 32.6781 49.1311 32.3954 49.0215 32.1317C48.9119 31.8681 48.7513 31.6287 48.5488 31.4273ZM43.5145 29.4766C44.4409 28.5535 45.6955 28.0351 47.0033 28.0351C48.3112 28.0351 49.5657 28.5535 50.4922 29.4766C50.951 29.9335 51.315 30.4765 51.5634 31.0744C51.8119 31.6723 51.9397 32.3134 51.9397 32.9609C51.9397 33.6083 51.8119 34.2494 51.5634 34.8474C51.315 35.4453 50.951 35.9883 50.4922 36.4451C49.5657 37.3683 48.3112 37.8867 47.0033 37.8867C45.6955 37.8867 44.4409 37.3683 43.5145 36.4451C43.056 35.9883 42.6921 35.4454 42.4439 34.8477C42.1956 34.2499 42.0678 33.609 42.0678 32.9618C42.0678 32.3145 42.1956 31.6737 42.4439 31.0759C42.6921 30.4781 43.056 29.9334 43.5145 29.4766Z" fill="white"/>
</svg>
