<svg width="100" height="100" viewBox="0 0 100 100" fill="none" xmlns="http://www.w3.org/2000/svg">
<circle cx="50" cy="50" r="50" fill="#066D72"/>
<path d="M66 34H34C31.8 34 30.02 35.8 30.02 38L30 62C30 64.2 31.8 66 34 66H66C68.2 66 70 64.2 70 62V38C70 35.8 68.2 34 66 34ZM65.2 42.5L51.06 51.34C50.42 51.74 49.58 51.74 48.94 51.34L34.8 42.5C34.5995 42.3874 34.4238 42.2353 34.2838 42.0529C34.1437 41.8705 34.0421 41.6616 33.9852 41.4387C33.9282 41.2159 33.917 40.9839 33.9523 40.7566C33.9876 40.5294 34.0687 40.3116 34.1906 40.1166C34.3125 39.9216 34.4726 39.7533 34.6615 39.622C34.8503 39.4907 35.0637 39.399 35.289 39.3526C35.5142 39.3062 35.7466 39.3059 35.9719 39.3519C36.1973 39.3979 36.4109 39.4891 36.6 39.62L50 48L63.4 39.62C63.5891 39.4891 63.8027 39.3979 64.0281 39.3519C64.2534 39.3059 64.4858 39.3062 64.711 39.3526C64.9363 39.399 65.1497 39.4907 65.3385 39.622C65.5274 39.7533 65.6875 39.9216 65.8094 40.1166C65.9313 40.3116 66.0124 40.5294 66.0477 40.7566C66.083 40.9839 66.0718 41.2159 66.0149 41.4387C65.9579 41.6616 65.8563 41.8705 65.7162 42.0529C65.5762 42.2353 65.4005 42.3874 65.2 42.5Z" fill="white"/>
</svg>
