<svg width="80" height="80" viewBox="0 0 80 80" fill="none" xmlns="http://www.w3.org/2000/svg">
<rect width="80" height="80" rx="10" fill="white"/>
<g clip-path="url(#clip0_609_8)">
<path d="M61.7189 27.9734C61.6252 27.3785 61.353 26.8262 60.9382 26.3897C60.5235 25.9531 59.9859 25.6529 59.3966 25.5289L52.2222 23.9522C51.4528 23.7844 50.6564 23.7838 49.8867 23.9504C49.1171 24.117 48.3922 24.4469 47.7611 24.9178L26.5555 40.3667L20.6155 40.1222C20.138 40.1052 19.6673 40.2389 19.2701 40.5046C18.873 40.7703 18.5697 41.1544 18.4032 41.6023C18.2368 42.0501 18.2157 42.5391 18.343 42.9996C18.4703 43.4602 18.7394 43.8689 19.1122 44.1678L25.2233 48.9711C25.9566 49.8634 26.4455 49.6922 38.5822 43.08L39.7189 54.5934C39.7378 54.9074 39.8454 55.2097 40.0293 55.465C40.2132 55.7203 40.4658 55.9182 40.7577 56.0356C40.9678 56.1186 41.1919 56.1601 41.4177 56.1578C41.8723 56.1439 42.3065 55.9659 42.64 55.6567L45.5611 52.9922C45.8519 52.7228 46.049 52.3673 46.1233 51.9778L48.8 37.4334C53.1633 34.9889 57.2944 32.6911 60.24 31.0167C60.767 30.7203 61.1909 30.27 61.4552 29.7262C61.7194 29.1824 61.8114 28.5709 61.7189 27.9734ZM59.03 28.89C55.9744 30.6256 51.6966 33.0578 47.1011 35.5756L46.6 35.8567L43.7522 51.3422L41.9555 52.98L40.6111 39.1689L38.9855 40C30.2222 44.8889 27.3011 46.3067 26.2989 46.7467L21.0433 42.5789L27.2522 42.8478L49.2522 26.8856C49.598 26.627 49.9945 26.4444 50.4157 26.3496C50.8369 26.2549 51.2734 26.2501 51.6966 26.3356L58.8466 27.8756C58.9568 27.8956 59.0577 27.9502 59.1347 28.0315C59.2116 28.1129 59.2606 28.2167 59.2744 28.3278C59.2996 28.4353 59.2894 28.5481 59.2453 28.6494C59.2013 28.7507 59.1258 28.8351 59.03 28.89Z" fill="#066D72"/>
<path d="M26.5555 33.3266L30.9067 34.5488L32.9111 33.0943L28.0222 31.6766L30.2222 30.3321L36.9078 30.1366L39.7189 28.0955L30.2222 28.3888C29.9228 28.3726 29.6253 28.4449 29.3667 28.5966L26.1522 30.4666C25.8865 30.624 25.6733 30.8566 25.5395 31.135C25.4057 31.4134 25.3573 31.7252 25.4005 32.031C25.4436 32.3369 25.5763 32.6231 25.7819 32.8537C25.9874 33.0842 26.2566 33.2488 26.5555 33.3266Z" fill="#066D72"/>
</g>
<defs>
<clipPath id="clip0_609_8">
<rect width="44" height="44" fill="white" transform="translate(18 18)"/>
</clipPath>
</defs>
</svg>
