<svg width="24" height="25" viewBox="0 0 24 25" fill="none" xmlns="http://www.w3.org/2000/svg">
<path d="M4.31205 0.780516V16.9086C4.31205 17.5696 4.69657 18.1704 5.29699 18.447C5.89784 18.7238 6.60481 18.6259 7.10772 18.1962C7.86272 17.551 8.61757 16.9054 9.37053 16.257C10.7819 15.0416 12.189 13.8209 13.6222 12.5793C13.9145 12.3264 14.3494 12.3255 14.6425 12.5775C15.2682 13.1148 15.8912 13.6485 16.5124 14.184C18.5101 15.9052 20.5069 17.6272 22.5063 19.3475C22.5816 19.4123 22.6612 19.4727 22.7417 19.533C22.8764 19.6337 23.0409 19.6879 23.2089 19.6879C23.2124 19.6879 23.2159 19.6879 23.2194 19.6879C23.6508 19.6879 24 19.3388 24 18.9074V0.780516C24 0.349132 23.6508 0 23.2194 0H5.09257C4.66118 0 4.31205 0.349132 4.31205 0.780516Z" fill="#3BBB6E"/>
<path d="M0.301843 5.32449C0.220466 7.92679 -0.191667 21.3968 0.107589 23.2825C0.14084 23.4942 0.233592 24.0752 0.604599 24.2188C1.04473 24.3894 1.638 23.8495 1.90575 23.58C2.78689 22.67 3.72841 21.7433 4.73294 20.8071C6.18197 19.4569 7.60825 18.2345 8.98465 17.1294C9.32503 17.1285 9.66454 17.1276 10.0049 17.1276C10.8134 17.8119 11.4592 18.3719 11.8748 18.7341C13.862 20.4676 15.8693 22.1773 17.8687 23.8976C17.944 23.9624 18.0236 24.0227 18.1041 24.0831C18.2388 24.1838 18.4033 24.238 18.5714 24.238C18.5749 24.238 18.5783 24.238 18.5819 24.238C19.0132 24.238 19.3624 23.8889 19.3624 23.4575V5.33061C19.3624 4.89923 19.0132 4.55009 18.5819 4.55009H0.454971C0.40422 4.80822 0.352594 5.06636 0.301843 5.32449Z" fill="#B1E4C5"/>
</svg>
