<svg width="34" height="34" viewBox="0 0 34 34" fill="none" xmlns="http://www.w3.org/2000/svg">
<g clip-path="url(#clip0_5_61)">
<path fill-rule="evenodd" clip-rule="evenodd" d="M16.9684 3.64287C15.9532 3.62453 14.9443 3.80658 13.9995 4.1786C13.0547 4.55061 12.1926 5.10528 11.4624 5.81088C10.7322 6.51647 10.1484 7.35913 9.74421 8.29063C9.34007 9.22212 9.12358 10.2242 9.10714 11.2394V21.8572C9.10714 22.5012 8.85128 23.119 8.39583 23.5744C7.94039 24.0299 7.32267 24.2857 6.67857 24.2857H3.64286C2.67671 24.2857 1.75014 23.9019 1.06697 23.2188C0.3838 22.5356 0 21.609 0 20.6429L0 15.7857C0 14.8196 0.3838 13.893 1.06697 13.2098C1.75014 12.5267 2.67671 12.1429 3.64286 12.1429H5.46429V11.1957C5.48644 9.70311 5.80242 8.22948 6.39417 6.85899C6.98592 5.4885 7.84184 4.24801 8.91307 3.20836C9.98429 2.16871 11.2498 1.35027 12.6374 0.799773C14.025 0.249278 15.5074 -0.0224838 17 8.59518e-06C18.4926 -0.0224838 19.975 0.249278 21.3626 0.799773C22.7502 1.35027 24.0157 2.16871 25.0869 3.20836C26.1582 4.24801 27.0141 5.4885 27.6058 6.85899C28.1976 8.22948 28.5136 9.70311 28.5357 11.1957V12.1429H30.3571C31.3233 12.1429 32.2499 12.5267 32.933 13.2098C33.6162 13.893 34 14.8196 34 15.7857V20.6429C34 21.609 33.6162 22.5356 32.933 23.2188C32.2499 23.9019 31.3233 24.2857 30.3571 24.2857H28.5357V25.5C28.536 27.1411 27.9321 28.7249 26.8391 29.9491C25.7461 31.1734 24.2407 31.9523 22.61 32.1373C22.2933 32.7027 21.8316 33.1734 21.2723 33.5008C20.7131 33.8282 20.0766 34.0006 19.4286 34H15.7857C14.8196 34 13.893 33.6162 13.2098 32.933C12.5267 32.2499 12.1429 31.3233 12.1429 30.3572C12.1429 29.391 12.5267 28.4644 13.2098 27.7813C13.893 27.0981 14.8196 26.7143 15.7857 26.7143H19.4286C20.7449 26.7143 21.8984 27.4113 22.5371 28.458C23.2065 28.3042 23.8039 27.9279 24.2318 27.3906C24.6597 26.8533 24.8927 26.1868 24.8929 25.5V11.237C24.8762 10.2165 24.6574 9.20946 24.2492 8.27404C23.841 7.33861 23.2514 6.49339 22.5145 5.78722C21.7776 5.08105 20.908 4.52794 19.9561 4.15988C19.0042 3.79182 17.9887 3.61609 16.9684 3.64287Z" fill="white"/>
</g>
<defs>
<clipPath id="clip0_5_61">
<rect width="34" height="34" fill="white"/>
</clipPath>
</defs>
</svg>
