<svg width="32" height="29" viewBox="0 0 32 29" fill="none" xmlns="http://www.w3.org/2000/svg">
<path d="M0.416668 28.7501H6.08333V11.7501H0.416668V28.7501ZM31.5833 13.1667C31.5833 11.6084 30.3083 10.3334 28.75 10.3334H19.8108L21.1567 3.85925L21.1992 3.40591C21.1992 2.82508 20.9583 2.28675 20.5758 1.90425L19.0742 0.416748L9.7525 9.75258C9.22833 10.2626 8.91667 10.9709 8.91667 11.7501V25.9167C8.91667 27.4751 10.1917 28.7501 11.75 28.7501H24.5C25.6758 28.7501 26.6817 28.0417 27.1067 27.0218L31.385 17.0342C31.5125 16.7084 31.5833 16.3684 31.5833 16.0001V13.1667Z" fill="white"/>
</svg>
