<svg width="34" height="34" viewBox="0 0 34 34" fill="none" xmlns="http://www.w3.org/2000/svg">
<path d="M17 0C18.5605 0 20.0658 0.199219 21.5156 0.597656C22.9655 0.996094 24.3158 1.57161 25.5664 2.32422C26.8171 3.07682 27.9626 3.96224 29.0029 4.98047C30.0433 5.9987 30.9342 7.14421 31.6758 8.41699C32.4173 9.68978 32.9873 11.0456 33.3857 12.4844C33.7842 13.9232 33.9889 15.4284 34 17C34 18.5605 33.8008 20.0658 33.4023 21.5156C33.0039 22.9655 32.4284 24.3158 31.6758 25.5664C30.9232 26.8171 30.0378 27.9626 29.0195 29.0029C28.0013 30.0433 26.8558 30.9342 25.583 31.6758C24.3102 32.4173 22.9544 32.9873 21.5156 33.3857C20.0768 33.7842 18.5716 33.9889 17 34C15.4395 34 13.9342 33.8008 12.4844 33.4023C11.0345 33.0039 9.68425 32.4284 8.43359 31.6758C7.18294 30.9232 6.03744 30.0378 4.99707 29.0195C3.95671 28.0013 3.06576 26.8558 2.32422 25.583C1.58268 24.3102 1.0127 22.9544 0.614258 21.5156C0.21582 20.0768 0.0110677 18.5716 0 17C0 15.4395 0.199219 13.9342 0.597656 12.4844C0.996094 11.0345 1.57161 9.68425 2.32422 8.43359C3.07682 7.18294 3.96224 6.03744 4.98047 4.99707C5.9987 3.95671 7.14421 3.06576 8.41699 2.32422C9.68978 1.58268 11.0456 1.0127 12.4844 0.614258C13.9232 0.21582 15.4284 0.0110677 17 0ZM27.0107 11.3721L24.7529 9.11426L13.8125 20.0547L9.24707 15.4893L6.98926 17.7471L13.8125 24.5703L27.0107 11.3721Z" fill="white"/>
</svg>
