<svg width="26" height="30" viewBox="0 0 26 30" fill="none" xmlns="http://www.w3.org/2000/svg">
<path d="M22.9167 3.66659H21.5V0.833252H18.6667V3.66659H7.33333V0.833252H4.5V3.66659H3.08333C1.51083 3.66659 0.264167 4.94159 0.264167 6.49992L0.25 26.3333C0.25 27.0847 0.548511 27.8054 1.07986 28.3367C1.61122 28.8681 2.33189 29.1666 3.08333 29.1666H22.9167C24.475 29.1666 25.75 27.8916 25.75 26.3333V6.49992C25.75 4.94159 24.475 3.66659 22.9167 3.66659ZM22.9167 26.3333H3.08333V12.1666H22.9167V26.3333ZM22.9167 9.33325H3.08333V6.49992H22.9167V9.33325ZM8.75 17.8333H5.91667V14.9999H8.75V17.8333ZM14.4167 17.8333H11.5833V14.9999H14.4167V17.8333ZM20.0833 17.8333H17.25V14.9999H20.0833V17.8333ZM8.75 23.4999H5.91667V20.6666H8.75V23.4999ZM14.4167 23.4999H11.5833V20.6666H14.4167V23.4999ZM20.0833 23.4999H17.25V20.6666H20.0833V23.4999Z" fill="white"/>
</svg>
