<svg width="30" height="27" viewBox="0 0 30 27" fill="none" xmlns="http://www.w3.org/2000/svg">
<path d="M4.3418 3.90625H25.5918C25.84 3.90614 26.088 3.92189 26.3342 3.9534C26.2508 3.36755 26.0495 2.80466 25.7426 2.29868C25.4358 1.79271 25.0296 1.35411 24.5486 1.00935C24.0677 0.664589 23.5219 0.420797 22.9441 0.292676C22.3664 0.164554 21.7687 0.154756 21.1871 0.263872L3.71094 3.2475H3.69102C2.59403 3.45728 1.61852 4.07793 0.963711 4.9827C1.95024 4.281 3.13117 3.90469 4.3418 3.90625ZM25.5918 5.5H4.3418C3.215 5.50123 2.13471 5.9494 1.33795 6.74616C0.541189 7.54292 0.0930273 8.62321 0.0917969 9.75V22.5C0.0930273 23.6268 0.541189 24.7071 1.33795 25.5038C2.13471 26.3006 3.215 26.7488 4.3418 26.75H25.5918C26.7186 26.7488 27.7989 26.3006 28.5956 25.5038C29.3924 24.7071 29.8406 23.6268 29.8418 22.5V9.75C29.8406 8.62321 29.3924 7.54292 28.5956 6.74616C27.7989 5.9494 26.7186 5.50123 25.5918 5.5ZM22.4375 18.25C22.0172 18.25 21.6064 18.1254 21.2569 17.8919C20.9075 17.6584 20.6351 17.3265 20.4743 16.9382C20.3134 16.5499 20.2713 16.1226 20.3533 15.7104C20.4353 15.2982 20.6377 14.9196 20.9349 14.6224C21.2321 14.3252 21.6107 14.1228 22.0229 14.0408C22.4351 13.9588 22.8624 14.0009 23.2507 14.1618C23.639 14.3226 23.9709 14.595 24.2044 14.9444C24.4379 15.2939 24.5625 15.7047 24.5625 16.125C24.5625 16.6886 24.3386 17.2291 23.9401 17.6276C23.5416 18.0261 23.0011 18.25 22.4375 18.25Z" fill="white"/>
</svg>
